<svg width="104" height="104" viewBox="0 0 104 104" fill="none" xmlns="http://www.w3.org/2000/svg">
    <path d="M65.794 5.125c-3.173 11.23-.977 23.192 5.86 32.594 6.71 9.397 17.331 15.135 29.173 15.622l3.173.122V52c0-23.56-15.748-43.58-37.351-49.925l-.855 3.05z" fill="#FEFEFE"/>
    <path d="M100.584 60.668c-14.037-.612-26.735-7.322-34.79-18.677-8.3-11.23-10.865-25.393-7.08-38.818l.734-2.687C57.008.121 54.565 0 52.004 0 25.76 0 4.03 19.533.49 44.8l2.808.242c13.061 1.099 25.024 7.813 32.837 18.43 7.691 10.5 10.5 23.926 7.57 36.865l-.617 2.929A54 54 0 0 0 52 104c25.637 0 47.118-18.677 51.267-43.21l-2.682-.122z" fill="#FEFEFE"/>
    <path d="M36.621 98.753c2.44-10.865.122-22.094-6.346-31.005-6.593-8.79-16.603-14.529-27.588-15.383L0 52.122c0 23.07 15.135 42.603 36.01 49.319l.611-2.688z" fill="#FEFEFE"/>
</svg>
